<svg height="100%" width="100%" id="svg" viewBox="0 0 1440 600" xmlns="http://www.w3.org/2000/svg" class="transition duration-300 ease-in-out delay-150"><path d="M 0,600 C 0,600 0,200 0,200 C 59.683173784977924,238.610088365243 119.36634756995585,277.220176730486 174,263 C 228.63365243004415,248.779823269514 278.2177835051546,181.72938144329893 346,179 C 413.7822164948454,176.27061855670107 499.76251840942564,237.86229749631815 572,234 C 644.2374815905744,230.13770250368185 702.7321428571429,160.82142857142856 742,136 C 781.2678571428571,111.17857142857143 801.3089101620028,130.85198821796757 868,148 C 934.6910898379972,165.14801178203243 1048.0322164948454,179.77061855670104 1111,179 C 1173.9677835051546,178.22938144329896 1186.5622238586157,162.06553755522827 1233,163 C 1279.4377761413843,163.93446244477173 1359.7188880706922,181.96723122238586 1440,200 C 1440,200 1440,600 1440,600 Z" stroke="none" stroke-width="0" fill="#3b27ba88" class="transition-all duration-300 ease-in-out delay-150" transform="rotate(-180 720 300)"></path><path d="M 0,600 C 0,600 0,400 0,400 C 46.90684830633283,373.75386597938143 93.81369661266567,347.5077319587629 163,363 C 232.18630338733433,378.4922680412371 323.65206185567007,435.7229381443299 387,446 C 450.34793814432993,456.2770618556701 485.5780559646539,419.60051546391753 546,404 C 606.4219440353461,388.39948453608247 692.0357142857142,393.87500000000006 750,408 C 807.9642857142858,422.12499999999994 838.279086892489,444.89948453608247 893,437 C 947.720913107511,429.10051546391753 1026.8479381443296,390.5270618556701 1092,393 C 1157.1520618556704,395.4729381443299 1208.3291605301915,438.99226804123714 1264,447 C 1319.6708394698085,455.00773195876286 1379.8354197349042,427.50386597938143 1440,400 C 1440,400 1440,600 1440,600 Z" stroke="none" stroke-width="0" fill="#3b27baff" class="transition-all duration-300 ease-in-out delay-150" transform="rotate(-180 720 300)"></path></svg>