<?xml version="1.0" encoding="utf-8"?>
<!-- Generator: Adobe Illustrator 18.0.0, SVG Export Plug-In . SVG Version: 6.00 Build 0)  -->
<!DOCTYPE svg PUBLIC "-//W3C//DTD SVG 1.1//EN" "http://www.w3.org/Graphics/SVG/1.1/DTD/svg11.dtd">
<svg version="1.1" id="Layer_1" xmlns="http://www.w3.org/2000/svg" xmlns:xlink="http://www.w3.org/1999/xlink" x="0px" y="0px"
	 viewBox="0 0 95.3 61.6" enable-background="new 0 0 95.3 61.6" xml:space="preserve">
<g>
	<g>
		<path fill="#3b27ba" d="M22.2,6.6C14,6.6,7.4,13.3,7.4,21.5c0,8.2,6.7,14.9,14.9,14.9c5.3,0,10-2.8,12.6-7.1
			c-2.1-3.3-4.7-9.4-1.6-17.7C30.6,8.5,26.6,6.6,22.2,6.6z"/>
		<path fill="#3b27ba" d="M32.4,34.3c-0.2,0.1-0.4,0.3-0.7,0.5c-1.5,3.9-5.2,6.6-9.5,6.6c-4.4,0-8.2-2.8-9.6-6.7
			c-0.5-0.3-0.8-0.6-1-0.8c-0.1-0.1-0.2-0.1-0.2-0.2l-0.1,0.1c-9.3,8-9.1,22-9.1,22.6l0,0.5h23.5c0.4-5.4,2-15.1,8.4-22.2
			c-0.5-0.4-0.9-0.7-1.1-0.9c-0.1,0.1-0.3,0.2-0.4,0.3C32.5,34.1,32.5,34.2,32.4,34.3z"/>
	</g>
	<g>
		<path fill="#3b27ba" d="M62.9,33.2c-0.1,0.1-0.3,0.3-0.5,0.4c-0.1,0.1-0.1,0.1-0.2,0.2c-1.5,1.2-4.8,3.3-9.2,4
			c-0.4,0.1-0.9,0.1-1.3,0.2c-0.4,0-0.8,0-1.1,0c-1.4,0-2.7-0.2-4-0.5c-4.1-1-7.2-3.5-8.1-4.2c-0.1-0.1-0.2-0.1-0.3-0.2L38,33.3
			c-10.6,9.2-10.4,25.2-10.4,25.9l0,0.6h45.3l0-0.6C72.2,40.6,64.8,34.5,62.9,33.2z M56.6,45.8l-6.4-3.2l-6.4,3.2v-7.9l6.4,3.4
			l6.4-3.4V45.8z"/>
	</g>
	<g>
		<g>
			<path fill="#3b27ba" d="M33.7,19c0,9.4,7.6,17,17,17h0c4.5,0,8.8-1.8,12-5c3.2-3.2,5-7.5,5-12c0-9.4-7.6-17-17-17
				C41.3,1.9,33.7,9.6,33.7,19z"/>
		</g>
	</g>
	<path fill="#3b27ba" d="M74.6,56l19.1,0l0-0.4c0-0.5-0.2-12.4-8.5-19.6l-0.1-0.1c-0.3,0.2-0.5,0.5-0.8,0.7l-5.9,11.5l-1-6.8
		l1.7-2.7C78,38.9,76.9,39,75.7,39c-0.3,0-0.6,0-0.9,0c-0.5,0-1.1-0.1-1.6-0.2c-0.2,0-0.4-0.1-0.6-0.1l1.7,2.7l-1.1,6.4
		C74,50.9,74.5,53.9,74.6,56z"/>
	<path fill="#3b27ba" d="M76.3,37.2c7.4,0,13.4-6,13.4-13.4c0-7.4-6-13.4-13.3-13.4c-3,0-5.8,1-8,2.7c0.7,1.9,1.1,4,1.1,6.1
		c0,4.5-1.6,8.6-4.4,11.7C67.4,34.7,71.5,37.2,76.3,37.2z"/>
</g>
</svg>
