<?xml version="1.0" encoding="utf-8"?>
<!-- Generator: Adobe Illustrator 18.0.0, SVG Export Plug-In . SVG Version: 6.00 Build 0)  -->
<!DOCTYPE svg PUBLIC "-//W3C//DTD SVG 1.1//EN" "http://www.w3.org/Graphics/SVG/1.1/DTD/svg11.dtd">
<svg version="1.1" id="Layer_1" xmlns="http://www.w3.org/2000/svg" xmlns:xlink="http://www.w3.org/1999/xlink" x="0px" y="0px"
	 viewBox="0 0 79.5 78.3" enable-background="new 0 0 79.5 78.3" xml:space="preserve">
<g>
	<path fill="#3b27ba" d="M6.9,27.3c-1.3-0.3-2.8,0.1-3.8,1.1c-1.6,1.6-1.6,4.2,0,5.8c0,0,0,0,0.1,0c0,0,0,0,0,0l7.7,7.7L23,29.8
		L6.9,27.3C6.9,27.3,6.9,27.3,6.9,27.3z"/>
	<path fill="#3b27ba" d="M51.2,71.2C51.2,71.2,51.2,71.2,51.2,71.2l-2.4-15.4L36.7,67.9l7.4,7.4c0,0,0,0,0,0
		c0.1,0.1,0.2,0.3,0.3,0.4c1.6,1.6,4.2,1.6,5.8,0C51.5,74.4,51.8,72.7,51.2,71.2z"/>
	<path fill="#3b27ba" d="M37.4,44.6l-3.4-3.4c-0.6-0.6-1.3-0.9-2.1-0.9c-0.8,0-1.5,0.3-2.1,0.9l-6.2,6.2l-0.9,0.9
		c-0.6,0.6-0.9,1.3-0.9,2.1c0,0.8,0.3,1.5,0.9,2.1l3.4,3.4c0.6,0.6,1.3,0.9,2.1,0.9c0.8,0,1.5-0.3,2.1-0.9l7.1-7.1
		c0.6-0.6,0.9-1.3,0.9-2.1C38.3,45.9,38,45.2,37.4,44.6z"/>
	<path fill="#3b27ba" d="M67.7,33.9L67.7,33.9l8.8-26.2c0.1-0.3,0.2-0.6,0.3-0.9l0,0c0.2-1.3-0.1-2.6-1.1-3.6c-1-1-2.4-1.4-3.7-1
		l0,0l0,0c-0.2,0.1-0.4,0.1-0.6,0.2l-25.6,8.4c-0.9,0.2-1.8,0.6-2.4,1.2L25.1,30.2L12.1,43.2l-2.2,2.2c-1.9,1.9-1.9,5.1,0,7l3,3
		l-0.8,1.5l9.6,9.6l1.5-0.8l3.1,3.1c1.9,1.9,5.1,1.9,7,0l2.2-2.2l13-13l18.2-18.2C67.1,34.9,67.5,34.4,67.7,33.9z M31.2,56.8
		c-1.6,1.6-4.3,1.7-6,0l-3.4-3.4c-1.7-1.7-1.6-4.3,0-6l0.9-0.9l6.2-6.2c1.6-1.6,4.3-1.6,6,0l3.4,3.4c1.7,1.7,1.6,4.3,0,6L31.2,56.8z
		 M44,34.7c-3-3-3-7.8,0-10.8c3-3,7.8-3,10.8,0c3,3,3,7.8,0,10.8C51.8,37.6,47,37.6,44,34.7z"/>
</g>
</svg>
