<svg height="100%" width="100%" id="svg" viewBox="0 0 1440 500" xmlns="http://www.w3.org/2000/svg" class="transition duration-300 ease-in-out delay-150"><path d="M 0,500 C 0,500 0,166 0,166 C 63.6496049467537,138.4122294744074 127.2992098935074,110.82445894881484 191,108 C 254.7007901064926,105.17554105118516 318.4527653727242,127.11439367914807 390,130 C 461.5472346272758,132.88560632085193 540.8897286155959,116.71796633459292 620,117 C 699.1102713844041,117.28203366540708 777.9883201648919,134.01374098248024 849,151 C 920.0116798351081,167.98625901751976 983.1569907248368,185.22706973548608 1040,176 C 1096.8430092751632,166.77293026451392 1147.383716935761,131.0779800755754 1213,125 C 1278.616283064239,118.92201992442459 1359.3081415321194,142.4610099622123 1440,166 C 1440,166 1440,500 1440,500 Z" stroke="none" stroke-width="0" fill="#3b27ba88" class="transition-all duration-300 ease-in-out delay-150"></path><path d="M 0,500 C 0,500 0,333 0,333 C 60.23084850566815,313.74270010305736 120.4616970113363,294.4854002061147 182,310 C 243.5383029886637,325.5145997938853 306.384060460323,375.80109927859843 374,383 C 441.615939539677,390.19890072140157 514.002061147372,354.31020267949157 592,331 C 669.997938852628,307.68979732050843 753.6076949501889,296.95809000343525 823,309 C 892.3923050498111,321.04190999656475 947.5671590518723,355.85743730676745 1007,374 C 1066.4328409481277,392.14256269323255 1130.123668842322,393.61216076949506 1203,384 C 1275.876331157678,374.38783923050494 1357.9381655788388,353.69391961525247 1440,333 C 1440,333 1440,500 1440,500 Z" stroke="none" stroke-width="0" fill="#3b27baff" class="transition-all duration-300 ease-in-out delay-150"></path></svg>