<svg height="100%" width="100%" id="svg" viewBox="0 0 1440 600" xmlns="http://www.w3.org/2000/svg" class="transition duration-300 ease-in-out delay-150"><path d="M 0,600 C 0,600 0,200 0,200 C 58.62109240810719,172.07901064926142 117.24218481621438,144.15802129852287 187,137 C 256.7578151837856,129.84197870147713 337.65235314324974,143.44692545517 409,176 C 480.34764685675026,208.55307454483 542.1484026107867,260.054276880797 617,257 C 691.8515973892133,253.94572311920302 779.7540364136037,196.33596702164203 857,170 C 934.2459635863963,143.66403297835797 1000.8354517347991,148.60185503263486 1059,142 C 1117.164548265201,135.39814496736514 1166.9041566472001,117.25661284781862 1229,125 C 1291.0958433527999,132.74338715218138 1365.5479216764,166.3716935760907 1440,200 C 1440,200 1440,600 1440,600 Z" stroke="none" stroke-width="0" fill="#3b27ba88" class="transition-all duration-300 ease-in-out delay-150" transform="rotate(-180 720 300)"></path><path d="M 0,600 C 0,600 0,400 0,400 C 76.35314324974235,421.6839574029543 152.7062864994847,443.36791480590864 231,426 C 309.2937135005153,408.63208519409136 389.52799725180347,352.2122981793198 442,365 C 494.47200274819653,377.7877018206802 519.1817244933012,459.7828924768121 582,454 C 644.8182755066988,448.2171075231879 745.7451047749915,354.6561319134318 824,352 C 902.2548952250085,349.3438680865682 957.837856406733,437.5925798694606 1016,442 C 1074.162143593267,446.4074201305394 1134.9034695980763,366.97354860872554 1206,346 C 1277.0965304019237,325.02645139127446 1358.5482652009619,362.51322569563723 1440,400 C 1440,400 1440,600 1440,600 Z" stroke="none" stroke-width="0" fill="#3b27baff" class="transition-all duration-300 ease-in-out delay-150" transform="rotate(-180 720 300)"></path></svg>