<svg height="100%" width="100%" id="svg" viewBox="0 0 1440 500" xmlns="http://www.w3.org/2000/svg" class="transition duration-300 ease-in-out delay-150"><path d="M 0,500 C 0,500 0,166 0,166 C 63.27997251803504,161.46959807626246 126.55994503607008,156.9391961525249 197,144 C 267.4400549639299,131.0608038474751 345.0401923737547,109.71281346616283 427,109 C 508.9598076262453,108.28718653383717 595.2792854689111,128.20954998282377 653,141 C 710.7207145310889,153.79045001717623 739.8426657506012,159.44898660254208 797,146 C 854.1573342493988,132.55101339745792 939.3500515286842,99.99450360700791 1018,119 C 1096.6499484713158,138.0054963929921 1168.7571281346616,208.57299896942632 1238,225 C 1307.2428718653384,241.42700103057368 1373.621435932669,203.71350051528685 1440,166 C 1440,166 1440,500 1440,500 Z" stroke="none" stroke-width="0" fill="#3b27ba88" class="transition-all duration-300 ease-in-out delay-150" transform="rotate(-180 720 250)"></path><path d="M 0,500 C 0,500 0,333 0,333 C 61.82480247337685,318.56303675712815 123.6496049467537,304.1260735142563 197,299 C 270.3503950532463,293.8739264857437 355.2263826863621,298.05874270010304 421,313 C 486.7736173136379,327.94125729989696 533.4448643077981,353.6389556853315 592,371 C 650.5551356922019,388.3610443146685 720.9941600824459,397.385434558571 790,378 C 859.0058399175541,358.614565441429 926.5784953624184,310.81930608038476 993,309 C 1059.4215046375816,307.18069391961524 1124.6918584678804,351.3373411198901 1199,363 C 1273.3081415321196,374.6626588801099 1356.6540707660597,353.83132944005496 1440,333 C 1440,333 1440,500 1440,500 Z" stroke="none" stroke-width="0" fill="#3b27baff" class="transition-all duration-300 ease-in-out delay-150" transform="rotate(-180 720 250)"></path></svg>