<svg height="100%" width="100%" id="svg" viewBox="0 0 1440 600" xmlns="http://www.w3.org/2000/svg" class="transition duration-300 ease-in-out delay-150"><path d="M 0,600 C 0,600 0,200 0,200 C 53.673600883652426,160.25625920471282 107.34720176730485,120.51251840942564 160,129 C 212.65279823269515,137.48748159057436 264.284793814433,194.2061855670103 331,207 C 397.715206185567,219.7938144329897 479.51362297496325,188.66273932253316 551,171 C 622.4863770250367,153.33726067746684 683.6607142857143,149.14285714285714 742,151 C 800.3392857142857,152.85714285714286 855.8435198821797,160.7658321060383 901,187 C 946.1564801178203,213.2341678939617 980.965206185567,257.79381443298973 1049,248 C 1117.034793814433,238.2061855670103 1218.2956553755523,174.05891016200295 1289,157 C 1359.7043446244477,139.94108983799705 1399.852172312224,169.97054491899854 1440,200 C 1440,200 1440,600 1440,600 Z" stroke="none" stroke-width="0" fill="#3b27ba88" class="transition-all duration-300 ease-in-out delay-150"></path><path d="M 0,600 C 0,600 0,400 0,400 C 79.50478645066275,406.3356038291605 159.0095729013255,412.67120765832107 210,392 C 260.9904270986745,371.32879234167893 283.4664948453608,323.65077319587635 330,340 C 376.5335051546392,356.34922680412365 447.1244477172313,436.7256995581737 509,463 C 570.8755522827687,489.2743004418263 624.0357142857141,461.4464285714286 694,427 C 763.9642857142859,392.5535714285714 850.7326951399118,351.48858615611186 923,368 C 995.2673048600882,384.51141384388814 1053.0335051546392,458.59922680412376 1112,468 C 1170.9664948453608,477.40077319587624 1231.1332842415318,422.1145066273932 1286,400 C 1340.8667157584682,377.8854933726068 1390.433357879234,388.9427466863034 1440,400 C 1440,400 1440,600 1440,600 Z" stroke="none" stroke-width="0" fill="#3b27baff" class="transition-all duration-300 ease-in-out delay-150"></path></svg>